700 0 1 0           
30 Autodesk Translation Framework 20 ASM 230.5.1.65535 NT 24 Thu Mar 20 22:20:58 2025 
1 9.999999999999999547e-07 1.000000000000000036e-10 
body $1 -1 $-1 $2 $-1 $3 #
rgb_color-st-attrib $-1 -1 $4 $-1 $0 0.627450980392156854 0.627450980392156854 0.627450980392156854 #
lump $-1 -1 $-1 $-1 $5 $0 #
transform $-1 -1 1 0 0 0 1 0 0 0 1 0 0 0 1 no_rotate no_reflect no_shear #
ATTRIB_CUSTOM-attrib $-1 -1 $-1 $1 $0 @20 Timestamp_attrib_def 1 1742527130404513 #
shell $-1 -1 $-1 $-1 $-1 $6 $-1 $2 #
face $7 -1 $-1 $8 $9 $5 $-1 $10 reversed single #
DXID-attrib $-1 -1 $-1 $-1 $6 @10 ASM ENTITY @1 0 #
face $11 -1 $-1 $12 $13 $5 $-1 $14 reversed single #
loop $-1 -1 $-1 $15 $16 $6 #
cone-surface $-1 -1 $-1 -26.24792983681668446 14.84781007750859061 0 0 0 1 -1.25000000000000111 -2.165063509461095936 0 1 I I 0 1 2.5 forward I I I I #
DXID-attrib $-1 -1 $-1 $-1 $8 @10 ASM ENTITY @1 1 #
face $17 -1 $-1 $18 $19 $5 $-1 $20 reversed single #
loop $-1 -1 $-1 $-1 $21 $8 #
plane-surface $-1 -1 $-1 -26.24792983681668446 14.84781007750859061 6.312000000000001165 0 0 1 -5.000000000000004441 -8.660254037844383745 0 forward_v I I I I #
loop $-1 -1 $-1 $-1 $22 $6 #
coedge $-1 -1 $-1 $16 $16 $21 $23 forward $9 $-1 #
DXID-attrib $-1 -1 $-1 $-1 $12 @10 ASM ENTITY @1 2 #
face $24 -1 $-1 $25 $26 $5 $-1 $27 reversed single #
loop $-1 -1 $-1 $28 $29 $12 #
cone-surface $-1 -1 $-1 25.98254563609737389 15.30746899668049998 0 0 0 1.000000000000000222 -1.249999999999999556 2.165063509461097269 0 1 I I 0 1 2.5 forward I I I I #
coedge $-1 -1 $-1 $21 $21 $16 $23 reversed $13 $-1 #
coedge $30 -1 $-1 $22 $22 $31 $32 reversed $15 $-1 #
edge $-1 -1 $-1 $33 -3.141592653589793116 $33 3.141592653589793116 $16 $34 forward @7 unknown #
DXID-attrib $-1 -1 $-1 $-1 $18 @10 ASM ENTITY @1 3 #
face $35 -1 $-1 $36 $37 $5 $-1 $38 reversed single #
loop $-1 -1 $-1 $-1 $39 $18 #
plane-surface $-1 -1 $-1 25.98254563609737389 15.30746899668049998 6.312000000000002053 0 0 1.000000000000000222 -4.999999999999998224 8.660254037844389075 0 forward_v I I I I #
loop $-1 -1 $-1 $-1 $40 $12 #
coedge $-1 -1 $-1 $29 $29 $39 $41 forward $19 $-1 #
ATTRIB_CUSTOM-attrib $-1 -1 $-1 $-1 $22 @17 sketch_attrib_def 1 1 3 @13 109 0 0 0 1 1 #
coedge $-1 -1 $-1 $31 $31 $22 $32 forward $42 $-1 #
edge $-1 -1 $-1 $43 -3.141592653589792672 $43 3.14159265358979356 $31 $44 forward @7 unknown #
vertex $-1 -1 $-1 $23 $45 #
ellipse-curve $-1 -1 $-1 -26.24792983681668446 14.84781007750859061 6.312000000000001165 0 0 1 -1.25000000000000111 -2.165063509461095936 0 1 I I #
DXID-attrib $-1 -1 $46 $-1 $25 @10 ASM ENTITY @1 4 #
face $47 -1 $-1 $48 $49 $5 $-1 $50 reversed single #
loop $-1 -1 $-1 $51 $52 $25 #
cone-surface $-1 -1 $-1 0.265384200719325003 -30.15527907418908171 0 0 0 1 2.5 0 0 1 I I 0 1 2.5 forward I I I I #
coedge $-1 -1 $-1 $39 $39 $29 $41 reversed $26 $-1 #
coedge $53 -1 $-1 $40 $40 $54 $55 reversed $28 $-1 #
edge $-1 -1 $-1 $56 -3.141592653589793116 $56 3.141592653589793116 $29 $57 forward @7 unknown #
loop $-1 -1 $-1 $58 $31 $59 #
vertex $-1 -1 $-1 $32 $60 #
ellipse-curve $-1 -1 $-1 -26.24792983681668446 14.84781007750859061 0 0 0 1 -1.25000000000000111 -2.165063509461095936 0 1 I I #
point $-1 -1 $-1 -24.99792983681668446 17.0128735869696861 6.312000000000001165 #
ATTRIB_CUSTOM-attrib $-1 -1 $-1 $35 $25 @22 FPM_tracked_attrib_def 1 902 #
DXID-attrib $-1 -1 $61 $-1 $36 @10 ASM ENTITY @1 5 #
face $62 -1 $-1 $63 $64 $5 $-1 $65 forward single #
loop $-1 -1 $-1 $-1 $66 $36 #
plane-surface $-1 -1 $-1 0.265384200719325114 -30.15527907418908171 6.312000000000001165 0 0 1 10 0 0 forward_v I I I I #
loop $-1 -1 $-1 $-1 $67 $25 #
coedge $-1 -1 $-1 $52 $52 $66 $68 forward $37 $-1 #
ATTRIB_CUSTOM-attrib $-1 -1 $-1 $-1 $40 @17 sketch_attrib_def 1 1 3 @13 109 0 0 0 1 1 #
coedge $-1 -1 $-1 $54 $54 $40 $55 forward $58 $-1 #
edge $-1 -1 $-1 $69 -3.141592653589793116 $69 3.141592653589793116 $54 $70 forward @7 unknown #
vertex $-1 -1 $-1 $41 $71 #
ellipse-curve $-1 -1 $-1 25.98254563609737389 15.30746899668049998 6.312000000000002053 0 0 1.000000000000000222 -1.249999999999999556 2.165063509461097269 0 1 I I #
loop $-1 -1 $-1 $72 $54 $59 #
face $73 -1 $-1 $-1 $42 $5 $-1 $74 reversed single #
point $-1 -1 $-1 -24.99792983681668446 17.0128735869696861 0 #
ATTRIB_CUSTOM-attrib $-1 -1 $-1 $47 $36 @22 FPM_tracked_attrib_def 1 902 #
DXID-attrib $-1 -1 $-1 $-1 $48 @10 ASM ENTITY @1 6 #
face $75 -1 $-1 $76 $77 $5 $-1 $78 forward single #
loop $-1 -1 $-1 $79 $80 $48 #
cone-surface $-1 -1 $-1 0 0 0 0 0 1 38 0 0 1 I I 0 1 38 forward I I I I #
coedge $-1 -1 $-1 $66 $66 $52 $68 reversed $49 $-1 #
coedge $81 -1 $-1 $67 $67 $82 $83 reversed $51 $-1 #
edge $-1 -1 $-1 $84 -3.141592653589793116 $84 3.141592653589793116 $52 $85 forward @7 unknown #
vertex $-1 -1 $-1 $55 $86 #
ellipse-curve $-1 -1 $-1 25.98254563609737389 15.30746899668049998 0 0 0 1 -1.249999999999999556 2.165063509461097269 0 1 I I #
point $-1 -1 $-1 27.23254563609737389 13.14240548721940272 6.312000000000002053 #
loop $-1 -1 $-1 $87 $82 $59 #
DXID-attrib $-1 -1 $-1 $-1 $59 @10 ASM ENTITY @1 9 #
plane-surface $-1 -1 $-1 0 0 0 0 0 1 10 0 0 forward_v I I I I #
DXID-attrib $-1 -1 $-1 $-1 $63 @10 ASM ENTITY @1 7 #
face $88 -1 $-1 $59 $89 $5 $-1 $90 forward single #
loop $-1 -1 $-1 $91 $92 $63 #
cone-surface $-1 -1 $-1 0 0 0 0 0 1 5.5 0 0 1 I I 0 -1 5.5 forward I I I I #
loop $-1 -1 $-1 $-1 $93 $48 #
coedge $-1 -1 $-1 $80 $80 $94 $95 reversed $64 $-1 #
ATTRIB_CUSTOM-attrib $-1 -1 $-1 $-1 $67 @17 sketch_attrib_def 1 1 3 @13 109 0 0 0 1 1 #
coedge $-1 -1 $-1 $82 $82 $67 $83 forward $72 $-1 #
edge $-1 -1 $-1 $96 -3.141592653589793116 $96 3.141592653589793116 $82 $97 forward @7 unknown #
vertex $-1 -1 $-1 $68 $98 #
ellipse-curve $-1 -1 $-1 0.265384200719325003 -30.15527907418908171 6.312000000000001165 0 0 1 2.5 0 0 1 I I #
point $-1 -1 $-1 27.23254563609737389 13.14240548721940272 0 #
loop $-1 -1 $-1 $99 $100 $59 #
DXID-attrib $-1 -1 $-1 $-1 $76 @10 ASM ENTITY @1 8 #
loop $-1 -1 $-1 $101 $94 $76 #
plane-surface $-1 -1 $-1 0 0 20 0 0 1 10 0 0 forward_v I I I I #
loop $-1 -1 $-1 $-1 $102 $63 #
coedge $-1 -1 $-1 $92 $92 $103 $104 reversed $77 $-1 #
coedge $105 -1 $-1 $93 $93 $100 $106 forward $79 $-1 #
coedge $-1 -1 $-1 $94 $94 $80 $95 forward $89 $-1 #
edge $-1 -1 $-1 $107 -3.141592653589793116 $107 3.141592653589793116 $80 $108 forward @7 unknown #
vertex $-1 -1 $-1 $83 $109 #
ellipse-curve $-1 -1 $-1 0.265384200719325003 -30.15527907418908171 0 0 0 1 2.5 0 0 1 I I #
point $-1 -1 $-1 -2.234615799280675219 -30.15527907418908171 6.312000000000001165 #
loop $-1 -1 $-1 $-1 $110 $59 #
coedge $111 -1 $-1 $100 $100 $93 $106 reversed $87 $-1 #
loop $-1 -1 $-1 $-1 $103 $76 #
coedge $112 -1 $-1 $102 $102 $110 $113 forward $91 $-1 #
coedge $-1 -1 $-1 $103 $103 $92 $104 forward $101 $-1 #
edge $-1 -1 $-1 $114 -3.141592653589793116 $114 3.141592653589793116 $92 $115 forward @7 unknown #
ATTRIB_CUSTOM-attrib $-1 -1 $-1 $-1 $93 @17 sketch_attrib_def 1 1 3 @13 106 0 0 0 1 1 #
edge $-1 -1 $-1 $116 -3.141592653589793116 $116 3.141592653589793116 $93 $117 forward @7 unknown #
vertex $-1 -1 $-1 $95 $118 #
ellipse-curve $-1 -1 $-1 0 0 20 0 0 1 38 0 0 1 I I #
point $-1 -1 $-1 -2.234615799280675219 -30.15527907418908171 0 #
coedge $119 -1 $-1 $110 $110 $102 $113 reversed $99 $-1 #
ATTRIB_CUSTOM-attrib $-1 -1 $-1 $-1 $100 @17 sketch_attrib_def 1 1 3 @13 106 0 0 0 1 1 #
ATTRIB_CUSTOM-attrib $-1 -1 $-1 $-1 $102 @17 sketch_attrib_def 1 1 3 @22 102 0 4294967295 0 1 1 #
edge $-1 -1 $-1 $120 -3.141592653589793116 $120 3.141592653589793116 $102 $121 forward @7 unknown #
vertex $-1 -1 $-1 $104 $122 #
ellipse-curve $-1 -1 $-1 0 0 20 -0 -0 -1 5.5 0 0 1 I I #
vertex $-1 -1 $-1 $106 $123 #
ellipse-curve $-1 -1 $-1 0 0 0 0 0 1 38 0 0 1 I I #
point $-1 -1 $-1 -38 -4.65365783675994273e-15 20 #
ATTRIB_CUSTOM-attrib $-1 -1 $-1 $-1 $110 @17 sketch_attrib_def 1 1 3 @22 102 0 4294967295 0 1 1 #
vertex $-1 -1 $-1 $113 $124 #
ellipse-curve $-1 -1 $-1 0 0 0 -0 -0 -1 5.5 0 0 1 I I #
point $-1 -1 $-1 -5.5 -6.735557395310443995e-16 20 #
point $-1 -1 $-1 -38 -4.65365783675994273e-15 0 #
point $-1 -1 $-1 -5.5 -6.735557395310443995e-16 0 #
End-of-ACIS-data 